<svg xmlns="http://www.w3.org/2000/svg" viewBox="0 0 32 32">
  <rect width="32" height="32" rx="7" fill="#0f172a"/>
  <path d="M16 8C14 8 10 9 8 11L8 24C10 22 14 21.5 16 21.5C18 21.5 22 22 24 24L24 11C22 9 18 8 16 8Z" fill="none" stroke="#38bdf8" stroke-width="1.6" stroke-linejoin="round"/>
  <line x1="16" y1="8" x2="16" y2="21.5" stroke="#38bdf8" stroke-width="1.6"/>
  <path d="M11 13 C12 12.5 14 12.3 16 12.3" stroke="#38bdf8" stroke-width="1" opacity="0.5"/>
  <path d="M11 15.5 C12 15 14 14.8 16 14.8" stroke="#38bdf8" stroke-width="1" opacity="0.5"/>
  <path d="M21 13 C20 12.5 18 12.3 16 12.3" stroke="#38bdf8" stroke-width="1" opacity="0.5"/>
  <path d="M21 15.5 C20 15 18 14.8 16 14.8" stroke="#38bdf8" stroke-width="1" opacity="0.5"/>
</svg>
